<svg xmlns="http://www.w3.org/2000/svg" version="1.1" xmlns:xlink="http://www.w3.org/1999/xlink" xmlns:svgjs="http://svgjs.dev/svgjs" width="100%" height="100%" viewBox="0 0 1000 600"><rect width="1000" height="600" x="0" y="0" fill="#141a46"/><g><rect width="333.3333333333333" height="333.3333333333333" y="173.94551736227672" fill="#ec8b5e" transform="matrix(0.8238681467686776,0,0,0.8238681467686776,0,19.38045973315087)" x="151.7233123779297"/><path d="M259.18019943316756 415.61023403511444L259.18019943316756 408.8800656285001L274.3669707507016 408.8800656285001Q280.043721493672 408.8800656285001 280.043721493672 403.17405328376185L280.043721493672 403.17405328376185L280.043721493672 278.02218252250304Q280.043721493672 275.0960223457142 278.66842621058123 273.7207270626234Q277.32239252925837 272.34543177953265 274.3669707507016 272.34543177953265L274.3669707507016 272.34543177953265L259.18019943316756 272.34543177953265L259.18019943316756 265.6152633729183L376.7533153365433 265.6152633729183L377.60190178781204 318.2861465551175L372.3348134695921 318.2861465551175Q372.3348134695921 314.0724759005416 370.54985576175096 303.94796168885216Q368.7356364521419 293.8234474771628 363.46854813392196 285.8350301945292L363.46854813392196 285.8350301945292Q354.6315444000196 272.34543177953265 338.6254482329847 272.34543177953265L338.6254482329847 272.34543177953265L305.1209142087524 272.34543177953265Q302.1654924301956 272.34543177953265 300.7901971471049 273.7207270626234Q299.444163465782 275.0960223457142 299.444163465782 278.02218252250304L299.444163465782 278.02218252250304L299.444163465782 334.70190514690296L315.65509084519226 334.70190514690296Q326.3940986940073 334.70190514690296 331.1344781804052 323.2313572538907Q335.87485766680317 311.7315477591105 335.87485766680317 299.0905357953827L335.87485766680317 299.0905357953827L341.3467771973983 299.0905357953827L341.3467771973983 377.0434429050375L335.87485766680317 377.0434429050375Q335.87485766680317 364.4024309413097 331.1344781804052 352.93188304829744Q326.3940986940073 341.46133515528516 315.65509084519226 341.46133515528516L315.65509084519226 341.46133515528516L299.444163465782 341.46133515528516L299.444163465782 401.9158044077427Q299.444163465782 405.0760573986746 300.7901971471049 406.97806151358736Q302.1654924301956 408.8800656285001 305.1209142087524 408.8800656285001L305.1209142087524 408.8800656285001L323.67276972959365 408.8800656285001L323.67276972959365 415.61023403511444L259.18019943316756 415.61023403511444Z " fill="#141a46" transform="matrix(0.8238681467686776,0,0,0.8238681467686776,0,19.38045973315087)"/><path d="M621.1110357511966 415.6139176050666Q612.7002437581592 415.6139176050666 604.5679548112489 411.88197678696395Q596.4635161689512 408.17788627347386 590.4478503726066 403.7775381446662L590.4478503726066 403.7775381446662Q582.0092080749564 397.344117779131 580.4217407120321 397.344117779131L580.4217407120321 397.344117779131Q576.4112968478023 397.344117779131 575.1858834448433 405.9777122090701L575.1858834448433 405.9777122090701L574.4060749156874 413.99859993752955L569.7829243499782 413.99859993752955L568.3904091193428 350.63915694362186L573.1806615127284 350.63915694362186Q574.4060749156874 365.48336930219455 581.5079025919276 379.01861734396994Q588.6375805727806 392.55386538574544 599.2485466302219 400.8532561603321Q609.8873629922758 409.1804972395313 621.1110357511966 409.1804972395313L621.1110357511966 409.1804972395313Q637.5705657773062 409.1804972395313 645.0901480227371 401.15960951107184Q652.6097302681678 393.13872178261227 652.6097302681678 381.9150490236915L652.6097302681678 381.9150490236915Q652.6097302681678 372.0838914954061 646.8725675179503 366.485980268252Q641.1632550723455 360.8602187364852 630.1345344457136 356.45987060767754L630.1345344457136 356.45987060767754L599.6663011994124 344.20573657808666Q583.8194778747824 337.80016651716403 576.2998956293516 327.66265563813886Q568.7803133839207 317.55299506372637 568.7803133839207 303.3214894066332L568.7803133839207 303.3214894066332Q568.7803133839207 284.04907861464017 580.0039861428415 274.83062778783426Q591.2276589017623 265.6121769610283 608.0770931924499 265.6121769610283L608.0770931924499 265.6121769610283Q621.3059878834856 265.6121769610283 637.3477633404046 277.6435085537176L637.3477633404046 277.6435085537176Q639.3529852725195 279.0360237843529 641.3582072046344 280.1500359688612Q643.3634291367492 281.26404815336946 644.9787468042863 281.26404815336946L644.9787468042863 281.26404815336946Q648.3764839670365 281.26404815336946 648.989190668516 276.4459454553712L648.989190668516 276.4459454553712L649.7968495022845 269.23271656068016L654.6149522002827 269.23271656068016L656.6201741323977 321.3684867956671L651.8020714343994 321.3684867956671Q648.5992864039381 306.9141787016723 641.6645605553741 295.69050594275154Q634.7576850114228 284.4668331838308 625.539234184617 278.25621525519716Q616.2929330531983 272.01774702195087 606.4896258295256 272.01774702195087L606.4896258295256 272.01774702195087Q595.2381027659922 272.01774702195087 588.024873871301 279.3423771350927Q580.8116449766101 286.66700724823454 580.8116449766101 299.70094980698127L580.8116449766101 299.70094980698127Q580.8116449766101 308.7244485014983 585.4347955423193 313.73750333178543Q590.0300958034159 318.7505581620727 599.0535944979329 322.3710977617245L599.0535944979329 322.3710977617245L637.7655179095952 337.80016651716403Q651.1893647329198 343.2031256120292 657.9012881445822 353.22923527260355Q664.6410618608572 363.255344933178 664.6410618608572 374.28406555980985L664.6410618608572 374.28406555980985Q664.6410618608572 384.9228819218638 659.906510076697 394.3362848809586Q655.1998085971496 403.7775381446662 645.480052287315 409.68180272256006Q635.7602959774804 415.6139176050666 621.1110357511966 415.6139176050666L621.1110357511966 415.6139176050666ZM723.9900609905352 414.38850420210747Q712.3486336624238 414.38850420210747 703.4365361863576 407.98293414118496Q694.4965884056788 401.57736408026244 689.5949347938424 390.5486434536306Q684.693281182006 379.5199228269987 684.693281182006 366.2631778313503L684.693281182006 366.2631778313503Q684.693281182006 353.03428314031464 689.7063360122933 342.0055625136828Q694.7193908425804 330.9768418870509 703.6314883186466 324.5712718261284Q712.5435857947127 318.1378514605931 723.9900609905352 318.1378514605931L723.9900609905352 318.1378514605931Q733.208511817341 318.1378514605931 740.0318364474542 322.06474441098476Q746.8551610775673 325.96378705676375 750.4478503726065 332.0908540715592Q754.0683899722584 338.19007078174195 754.0683899722584 344.42853901498825L754.0683899722584 344.42853901498825Q754.0683899722584 350.63915694362186 750.8656049417972 354.1482953248229Q747.6349696067232 357.6574337060239 743.0396693456265 357.6574337060239L743.0396693456265 357.6574337060239Q739.0292254813968 357.6574337060239 736.3277459339643 355.0395050724295Q733.598416081919 352.4494267434478 733.598416081919 348.8288871437959L733.598416081919 348.8288871437959Q733.598416081919 345.2083475441441 735.6036380140339 342.8132213474513Q737.6088599461488 340.4180951507585 740.4217407120321 339.61043631699L740.4217407120321 339.61043631699Q743.6245257424933 338.60782535093256 743.6245257424933 335.9898967173382L743.6245257424933 335.9898967173382Q743.6245257424933 333.5947705206454 741.5357528965404 330.586937622473Q739.4191297459746 327.5791047243007 735.0187816171671 325.2675294414461Q730.5905831837466 322.95595415859145 723.9900609905352 322.95595415859145L723.9900609905352 322.95595415859145Q711.3460226963663 322.95595415859145 706.8342733491078 333.7897226529343Q702.3225240018494 344.62349114727726 702.3225240018494 366.2631778313503L702.3225240018494 366.2631778313503Q702.3225240018494 387.9307148200361 706.7507224352697 398.76448331437905Q711.1510705640774 409.5982518087219 723.9900609905352 409.5982518087219L723.9900609905352 409.5982518087219Q736.2163447155134 409.5982518087219 742.8447172133376 400.9646573787828Q749.445239406549 392.33106294884385 750.8656049417972 380.71748592534504L750.8656049417972 380.71748592534504L755.6558573351826 380.71748592534504Q755.0710009383158 388.93332578609363 751.450461338664 396.64786016381333Q747.8577720436248 404.36239454153304 740.8394952812228 409.3754493718203Q733.8212185188206 414.38850420210747 723.9900609905352 414.38850420210747L723.9900609905352 414.38850420210747ZM768.1049434970625 411.9933780054147L768.1049434970625 407.1752753074164L779.3286162559833 407.1752753074164Q781.7237424526762 407.1752753074164 782.7263534187335 406.172664341359Q783.7289643847911 405.17005337530156 783.7289643847911 402.7749271786088L783.7289643847911 402.7749271786088L783.7289643847911 278.45116738748607Q783.7289643847911 276.0281908861806 782.7263534187335 275.02557992012316Q781.7237424526762 274.02296895406573 779.3286162559833 274.02296895406573L779.3286162559833 274.02296895406573L768.1049434970625 274.02296895406573L768.1049434970625 269.23271656068016L798.1832724787859 269.23271656068016L798.1832724787859 336.9925076833956L798.9909313125543 337.1874598156845Q803.5862315736509 327.5791047243007 810.409556203764 322.8724032447533Q817.2328808338772 318.1378514605931 825.4487206946256 318.1378514605931L825.4487206946256 318.1378514605931Q840.0979809209094 318.1378514605931 846.1971976310922 327.1613501551101Q852.3242646458876 336.1848488496271 852.3242646458876 348.8288871437959L852.3242646458876 348.8288871437959L852.3242646458876 402.7749271786088Q852.3242646458876 405.17005337530156 853.3268756119451 406.172664341359Q854.3294865780025 407.1752753074164 856.7246127746953 407.1752753074164L856.7246127746953 407.1752753074164L865.1632550723455 407.1752753074164L865.1632550723455 411.9933780054147L825.0588164300478 411.9933780054147L825.0588164300478 407.1752753074164L833.4696084230851 407.1752753074164Q835.864734619778 407.1752753074164 836.8673455858353 406.172664341359Q837.8699565518929 405.17005337530156 837.8699565518929 402.7749271786088L837.8699565518929 402.7749271786088L837.8699565518929 345.0133954118551Q837.8699565518929 336.1848488496271 834.3608181706919 329.9742309209935Q830.8516797894907 323.76361299235987 822.4408877964534 323.76361299235987L822.4408877964534 323.76361299235987Q815.4226110340513 323.76361299235987 809.9082507207353 328.6652666041963Q804.3938904074195 333.5947705206454 801.2746562907962 342.1169637321336Q798.1832724787859 350.63915694362186 798.1832724787859 361.0551708687742L798.1832724787859 361.0551708687742L798.1832724787859 402.7749271786088Q798.1832724787859 405.17005337530156 799.1858834448432 406.172664341359Q800.1884944109007 407.1752753074164 802.5836206075935 407.1752753074164L802.5836206075935 407.1752753074164L811.0222629052436 407.1752753074164L811.0222629052436 411.9933780054147L768.1049434970625 411.9933780054147ZM922.5070322699086 414.38850420210747Q903.847328179395 414.38850420210747 892.5122542020234 401.77231621255135Q881.2050305292645 389.12827791838254 881.2050305292645 366.680932400541L881.2050305292645 366.680932400541Q881.2050305292645 353.84194197408317 886.2180853595517 342.70182012900045Q891.2311401898389 331.58954858853053 900.1432376659051 324.87762517686815Q909.0553351419711 318.1378514605931 920.084055768603 318.1378514605931L920.084055768603 318.1378514605931Q932.338189798194 318.1378514605931 940.1362750897518 324.7662239584173Q947.9622106859225 331.3945964562415 951.4713490671235 341.5042570306541Q954.9804874483245 351.6417679096793 954.9804874483245 362.25273396712055L954.9804874483245 362.25273396712055Q954.9804874483245 364.4807583361371 953.5879722176892 365.1770159514548Q952.167606682441 365.87327356677247 948.7698695196909 365.87327356677247L948.7698695196909 365.87327356677247L898.8342733491078 365.87327356677247Q898.8342733491078 385.9254928879212 904.5435857947126 397.7618723483216Q910.2807485449302 409.5982518087219 923.3146911036771 409.5982518087219L923.3146911036771 409.5982518087219Q932.5331419304829 409.5982518087219 940.6375805727806 402.5799750463199Q948.7698695196909 395.56169828391774 950.9700435840948 380.71748592534504L950.9700435840948 380.71748592534504L955.788146282093 380.71748592534504Q954.5905831837466 395.33889584701615 945.6506354030678 404.8637000245618Q936.7385379270016 414.38850420210747 922.5070322699086 414.38850420210747L922.5070322699086 414.38850420210747ZM898.8342733491078 361.0551708687742L937.7411488930591 361.0551708687742Q937.7411488930591 345.0133954118551 933.5357528965403 333.9846747852232Q929.3303569000217 322.95595415859145 919.6941515040252 322.95595415859145L919.6941515040252 322.95595415859145Q909.4730897111618 322.95595415859145 904.1536815301348 334.09607600367406Q898.8342733491078 345.2083475441441 898.8342733491078 361.0551708687742L898.8342733491078 361.0551708687742ZM1008.7315753508484 414.38850420210747Q999.2903220871409 414.38850420210747 991.1858834448432 408.0943353596358Q983.0535944979327 401.77231621255135 978.2354917999347 390.7435955859195Q973.4452394065491 379.7148749592876 973.4452394065491 366.2631778313503L973.4452394065491 366.2631778313503Q973.4452394065491 352.83933100802574 978.2354917999347 341.8106103813939Q983.0535944979327 330.781889754762 991.1858834448432 324.45987060767754Q999.2903220871409 318.1378514605931 1008.7315753508484 318.1378514605931L1008.7315753508484 318.1378514605931Q1016.557510947019 318.1378514605931 1022.7681288756527 323.2623075093312Q1028.9787468042862 328.3867635580692 1031.9865797024586 335.59999245276026L1031.9865797024586 335.59999245276026L1032.794238536227 335.40504032047124L1032.794238536227 278.45116738748607Q1032.794238536227 276.0281908861806 1031.7916275701696 275.02557992012316Q1030.789016604112 274.02296895406573 1028.3660401028067 274.02296895406573L1028.3660401028067 274.02296895406573L1013.9395823134246 274.02296895406573L1013.9395823134246 269.23271656068016L1047.220696325609 269.23271656068016L1047.220696325609 402.7749271786088Q1047.220696325609 405.17005337530156 1048.2233072916665 406.172664341359Q1049.225918257724 407.1752753074164 1051.6488947590296 407.1752753074164L1051.6488947590296 407.1752753074164L1062.0649086841818 407.1752753074164L1062.0649086841818 411.9933780054147L1032.794238536227 411.9933780054147L1032.794238536227 397.149165646842L1031.9865797024586 396.9542135145531Q1028.1710879705179 404.97510124301266 1022.2668233926239 409.68180272256006Q1016.3347085101174 414.38850420210747 1008.7315753508484 414.38850420210747L1008.7315753508484 414.38850420210747ZM1010.9317494152523 408.7905929749535Q1016.9474152115969 408.7905929749535 1021.9604700418842 404.36239454153304Q1026.9735248721713 399.9620464127254 1029.8699565518928 392.2475120350057Q1032.794238536227 384.53297765728587 1032.794238536227 375.509478962769L1032.794238536227 375.509478962769L1032.794238536227 357.04472700454437Q1032.794238536227 348.0212283100275 1029.8699565518928 340.30669393230767Q1026.9735248721713 332.59215955458797 1021.9604700418842 328.1639611211675Q1016.9474152115969 323.76361299235987 1010.9317494152523 323.76361299235987L1010.9317494152523 323.76361299235987Q1001.1005918869669 323.76361299235987 996.0875370566796 334.79233361899173Q991.0744822263924 345.8210542456236 991.0744822263924 366.2631778313503L991.0744822263924 366.2631778313503Q991.0744822263924 386.73315172168975 996.0875370566796 397.7618723483216Q1001.1005918869669 408.7905929749535 1010.9317494152523 408.7905929749535L1010.9317494152523 408.7905929749535Z " fill="#ec8b5e" transform="matrix(0.8238681467686776,0,0,0.8238681467686776,0,19.38045973315087)"/></g></svg>